<?xml version="1.0" encoding="UTF-8" standalone="no"?><svg xmlns="http://www.w3.org/2000/svg" xmlns:xlink="http://www.w3.org/1999/xlink" clip-rule="evenodd" stroke-miterlimit="4.00" viewBox="0 0 1024 768"><desc>SVG generated by Keynote</desc><defs></defs><g transform="matrix(1.00, 0.00, -0.00, -1.00, 0.0, 768.0)"><g><clipPath id="clip-6"><path d="M 0.0 768.0 L 1024.0 768.0 L 1024.0 0.0 L 0.0 0.0 Z M 0.0 768.0 "></path></clipPath><g clip-path="url(#clip-6)"><image xlink:href="../../A8ABAAB2-9805-4355-86DC-AB1D37E6CD16/assets/CADFDCF2F166FEDCE00D883A7C86E72A.jpeg" width="1024.00" height="768.00" transform="matrix(1.00, 0.00, -0.00, -1.00, 0.0, 768.0)"></image></g></g><text xml:space="preserve" font-family="Baskerville" font-size="34.0" fill="#A19A84" transform="matrix(1.00, 0.00, -0.00, -1.00, 432.0, 232.0)">~</text><text xml:space="preserve" font-family="Baskerville" font-size="34.0" fill="#A19A84" transform="matrix(1.00, 0.00, -0.00, -1.00, 454.6, 232.0)">W</text><text xml:space="preserve" font-family="Baskerville" font-size="34.0" fill="#A19A84" transform="matrix(1.00, 0.00, -0.00, -1.00, 485.6, 232.0)">i</text><text xml:space="preserve" font-family="Baskerville" font-size="34.0" fill="#A19A84" transform="matrix(1.00, 0.00, -0.00, -1.00, 494.1, 232.0)">k</text><text xml:space="preserve" font-family="Baskerville" font-size="34.0" fill="#A19A84" transform="matrix(1.00, 0.00, -0.00, -1.00, 509.7, 232.0)">i</text><text xml:space="preserve" font-family="Baskerville" font-size="34.0" fill="#A19A84" transform="matrix(1.00, 0.00, -0.00, -1.00, 518.2, 232.0)">p</text><text xml:space="preserve" font-family="Baskerville" font-size="34.0" fill="#A19A84" transform="matrix(1.00, 0.00, -0.00, -1.00, 535.9, 232.0)">e</text><text xml:space="preserve" font-family="Baskerville" font-size="34.0" fill="#A19A84" transform="matrix(1.00, 0.00, -0.00, -1.00, 550.8, 232.0)">d</text><text xml:space="preserve" font-family="Baskerville" font-size="34.0" fill="#A19A84" transform="matrix(1.00, 0.00, -0.00, -1.00, 568.5, 232.0)">i</text><text xml:space="preserve" font-family="Baskerville" font-size="34.0" fill="#A19A84" transform="matrix(1.00, 0.00, -0.00, -1.00, 577.0, 232.0)">a</text><text xml:space="preserve" font-family="Baskerville-SemiBoldItalic" font-style="italic" font-weight="bold" font-size="48.0" fill="#6E695A" transform="matrix(1.00, 0.00, -0.00, -1.00, 153.0, 472.0)">D</text><text xml:space="preserve" font-family="Baskerville-SemiBoldItalic" font-style="italic" font-weight="bold" font-size="48.0" fill="#6E695A" transform="matrix(1.00, 0.00, -0.00, -1.00, 188.5, 472.0)">j</text><text xml:space="preserve" font-family="Baskerville-SemiBoldItalic" font-style="italic" font-weight="bold" font-size="48.0" fill="#6E695A" transform="matrix(1.00, 0.00, -0.00, -1.00, 203.6, 472.0)">a</text><text xml:space="preserve" font-family="Baskerville-SemiBoldItalic" font-style="italic" font-weight="bold" font-size="48.0" fill="#6E695A" transform="matrix(1.00, 0.00, -0.00, -1.00, 229.0, 472.0)">n</text><text xml:space="preserve" font-family="Baskerville-SemiBoldItalic" font-style="italic" font-weight="bold" font-size="48.0" fill="#6E695A" transform="matrix(1.00, 0.00, -0.00, -1.00, 257.0, 472.0)">g</text><text xml:space="preserve" font-family="Baskerville-SemiBoldItalic" font-style="italic" font-weight="bold" font-size="48.0" fill="#6E695A" transform="matrix(1.00, 0.00, -0.00, -1.00, 280.6, 472.0)">o</text><text xml:space="preserve" font-family="Baskerville-SemiBoldItalic" font-style="italic" font-weight="bold" font-size="48.0" fill="#6E695A" transform="matrix(1.00, 0.00, -0.00, -1.00, 306.0, 472.0)"> </text><text xml:space="preserve" font-family="Baskerville-SemiBoldItalic" font-style="italic" font-weight="bold" font-size="48.0" fill="#6E695A" transform="matrix(1.00, 0.00, -0.00, -1.00, 318.0, 472.0)">(</text><text xml:space="preserve" font-family="Baskerville-SemiBoldItalic" font-style="italic" font-weight="bold" font-size="48.0" fill="#6E695A" transform="matrix(1.00, 0.00, -0.00, -1.00, 331.0, 472.0)">/</text><text xml:space="preserve" font-family="Baskerville-SemiBoldItalic" font-style="italic" font-weight="bold" font-size="48.0" fill="#6E695A" transform="matrix(1.00, 0.00, -0.00, -1.00, 345.0, 472.0)">ˈ</text><text xml:space="preserve" font-family="Baskerville-SemiBoldItalic" font-style="italic" font-weight="bold" font-size="48.0" fill="#6E695A" transform="matrix(1.00, 0.00, -0.00, -1.00, 354.1, 472.0)">d</text><text xml:space="preserve" font-family="Baskerville-SemiBoldItalic" font-style="italic" font-weight="bold" font-size="48.0" fill="#6E695A" transform="matrix(1.00, 0.00, -0.00, -1.00, 381.6, 472.0)">ʒ</text><text xml:space="preserve" font-family="Baskerville-SemiBoldItalic" font-style="italic" font-weight="bold" font-size="48.0" fill="#6E695A" transform="matrix(1.00, 0.00, -0.00, -1.00, 411.7, 472.0)">æ</text><text xml:space="preserve" font-family="Baskerville-SemiBoldItalic" font-style="italic" font-weight="bold" font-size="48.0" fill="#6E695A" transform="matrix(1.00, 0.00, -0.00, -1.00, 446.2, 472.0)">ŋ</text><text xml:space="preserve" font-family="Baskerville-SemiBoldItalic" font-style="italic" font-weight="bold" font-size="48.0" fill="#6E695A" transform="matrix(1.00, 0.00, -0.00, -1.00, 473.5, 472.0)">ɡ</text><text xml:space="preserve" font-family="Baskerville-SemiBoldItalic" font-style="italic" font-weight="bold" font-size="48.0" fill="#6E695A" transform="matrix(1.00, 0.00, -0.00, -1.00, 504.5, 472.0)">o</text><text xml:space="preserve" font-family="Baskerville-SemiBoldItalic" font-style="italic" font-weight="bold" font-size="48.0" fill="#6E695A" transform="matrix(1.00, 0.00, -0.00, -1.00, 530.0, 472.0)">ʊ</text><text xml:space="preserve" font-family="Baskerville-SemiBoldItalic" font-style="italic" font-weight="bold" font-size="48.0" fill="#6E695A" transform="matrix(1.00, 0.00, -0.00, -1.00, 561.7, 472.0)">/</text><text xml:space="preserve" font-family="Baskerville-SemiBoldItalic" font-style="italic" font-weight="bold" font-size="48.0" fill="#6E695A" transform="matrix(1.00, 0.00, -0.00, -1.00, 575.8, 472.0)"> </text><text xml:space="preserve" font-family="Baskerville-SemiBoldItalic" font-style="italic" font-weight="bold" font-size="48.0" fill="#6E695A" transform="matrix(1.00, 0.00, -0.00, -1.00, 587.8, 472.0)">j</text><text xml:space="preserve" font-family="Baskerville-SemiBoldItalic" font-style="italic" font-weight="bold" font-size="48.0" fill="#6E695A" transform="matrix(1.00, 0.00, -0.00, -1.00, 602.8, 472.0)">a</text><text xml:space="preserve" font-family="Baskerville-SemiBoldItalic" font-style="italic" font-weight="bold" font-size="48.0" fill="#6E695A" transform="matrix(1.00, 0.00, -0.00, -1.00, 628.2, 472.0)">n</text><text xml:space="preserve" font-family="Baskerville-SemiBoldItalic" font-style="italic" font-weight="bold" font-size="48.0" fill="#6E695A" transform="matrix(1.00, 0.00, -0.00, -1.00, 656.2, 472.0)">g</text><text xml:space="preserve" font-family="Baskerville-SemiBoldItalic" font-style="italic" font-weight="bold" font-size="48.0" fill="#6E695A" transform="matrix(1.00, 0.00, -0.00, -1.00, 679.8, 472.0)">-</text><text xml:space="preserve" font-family="Baskerville-SemiBoldItalic" font-style="italic" font-weight="bold" font-size="48.0" fill="#6E695A" transform="matrix(1.00, 0.00, -0.00, -1.00, 694.8, 472.0)">g</text><text xml:space="preserve" font-family="Baskerville-SemiBoldItalic" font-style="italic" font-weight="bold" font-size="48.0" fill="#6E695A" transform="matrix(1.00, 0.00, -0.00, -1.00, 718.3, 472.0)">o</text><text xml:space="preserve" font-family="Baskerville-SemiBoldItalic" font-style="italic" font-weight="bold" font-size="48.0" fill="#6E695A" transform="matrix(1.00, 0.00, -0.00, -1.00, 743.8, 472.0)">h</text><text xml:space="preserve" font-family="Baskerville-SemiBoldItalic" font-style="italic" font-weight="bold" font-size="48.0" fill="#6E695A" transform="matrix(1.00, 0.00, -0.00, -1.00, 771.3, 472.0)">)</text><text xml:space="preserve" font-family="Baskerville-SemiBoldItalic" font-style="italic" font-weight="bold" font-size="48.0" fill="#6E695A" transform="matrix(1.00, 0.00, -0.00, -1.00, 784.3, 472.0)"> </text><text xml:space="preserve" font-family="Baskerville-SemiBoldItalic" font-style="italic" font-weight="bold" font-size="48.0" fill="#6E695A" transform="matrix(1.00, 0.00, -0.00, -1.00, 796.3, 472.0)">i</text><text xml:space="preserve" font-family="Baskerville-SemiBoldItalic" font-style="italic" font-weight="bold" font-size="48.0" fill="#6E695A" transform="matrix(1.00, 0.00, -0.00, -1.00, 811.4, 472.0)">s</text><text xml:space="preserve" font-family="Baskerville-SemiBoldItalic" font-style="italic" font-weight="bold" font-size="48.0" fill="#6E695A" transform="matrix(1.00, 0.00, -0.00, -1.00, 833.3, 472.0)"> </text><text xml:space="preserve" font-family="Baskerville-SemiBoldItalic" font-style="italic" font-weight="bold" font-size="48.0" fill="#6E695A" transform="matrix(1.00, 0.00, -0.00, -1.00, 845.3, 472.0)">a</text><text xml:space="preserve" font-family="Baskerville-SemiBoldItalic" font-style="italic" font-weight="bold" font-size="48.0" fill="#6E695A" transform="matrix(1.00, 0.00, -0.00, -1.00, 870.8, 472.0)"> </text><text xml:space="preserve" font-family="Baskerville-SemiBoldItalic" font-style="italic" font-weight="bold" font-size="48.0" fill="#6E695A" transform="matrix(1.00, 0.00, -0.00, -1.00, 143.0, 417.0)">F</text><text xml:space="preserve" font-family="Baskerville-SemiBoldItalic" font-style="italic" font-weight="bold" font-size="48.0" fill="#6E695A" transform="matrix(1.00, 0.00, -0.00, -1.00, 169.5, 417.0)">O</text><text xml:space="preserve" font-family="Baskerville-SemiBoldItalic" font-style="italic" font-weight="bold" font-size="48.0" fill="#6E695A" transform="matrix(1.00, 0.00, -0.00, -1.00, 207.5, 417.0)">S</text><text xml:space="preserve" font-family="Baskerville-SemiBoldItalic" font-style="italic" font-weight="bold" font-size="48.0" fill="#6E695A" transform="matrix(1.00, 0.00, -0.00, -1.00, 234.0, 417.0)">S</text><text xml:space="preserve" font-family="Baskerville-SemiBoldItalic" font-style="italic" font-weight="bold" font-size="48.0" fill="#6E695A" transform="matrix(1.00, 0.00, -0.00, -1.00, 260.4, 417.0)"> </text><text xml:space="preserve" font-family="Baskerville-SemiBoldItalic" font-style="italic" font-weight="bold" font-size="48.0" fill="#6E695A" transform="matrix(1.00, 0.00, -0.00, -1.00, 272.4, 417.0)">w</text><text xml:space="preserve" font-family="Baskerville-SemiBoldItalic" font-style="italic" font-weight="bold" font-size="48.0" fill="#6E695A" transform="matrix(1.00, 0.00, -0.00, -1.00, 311.5, 417.0)">e</text><text xml:space="preserve" font-family="Baskerville-SemiBoldItalic" font-style="italic" font-weight="bold" font-size="48.0" fill="#6E695A" transform="matrix(1.00, 0.00, -0.00, -1.00, 334.0, 417.0)">b</text><text xml:space="preserve" font-family="Baskerville-SemiBoldItalic" font-style="italic" font-weight="bold" font-size="48.0" fill="#6E695A" transform="matrix(1.00, 0.00, -0.00, -1.00, 360.0, 417.0)"> </text><text xml:space="preserve" font-family="Baskerville-SemiBoldItalic" font-style="italic" font-weight="bold" font-size="48.0" fill="#6E695A" transform="matrix(1.00, 0.00, -0.00, -1.00, 372.0, 417.0)">a</text><text xml:space="preserve" font-family="Baskerville-SemiBoldItalic" font-style="italic" font-weight="bold" font-size="48.0" fill="#6E695A" transform="matrix(1.00, 0.00, -0.00, -1.00, 397.5, 417.0)">p</text><text xml:space="preserve" font-family="Baskerville-SemiBoldItalic" font-style="italic" font-weight="bold" font-size="48.0" fill="#6E695A" transform="matrix(1.00, 0.00, -0.00, -1.00, 425.0, 417.0)">p</text><text xml:space="preserve" font-family="Baskerville-SemiBoldItalic" font-style="italic" font-weight="bold" font-size="48.0" fill="#6E695A" transform="matrix(1.00, 0.00, -0.00, -1.00, 452.5, 417.0)">l</text><text xml:space="preserve" font-family="Baskerville-SemiBoldItalic" font-style="italic" font-weight="bold" font-size="48.0" fill="#6E695A" transform="matrix(1.00, 0.00, -0.00, -1.00, 467.6, 417.0)">i</text><text xml:space="preserve" font-family="Baskerville-SemiBoldItalic" font-style="italic" font-weight="bold" font-size="48.0" fill="#6E695A" transform="matrix(1.00, 0.00, -0.00, -1.00, 482.6, 417.0)">c</text><text xml:space="preserve" font-family="Baskerville-SemiBoldItalic" font-style="italic" font-weight="bold" font-size="48.0" fill="#6E695A" transform="matrix(1.00, 0.00, -0.00, -1.00, 504.6, 417.0)">a</text><text xml:space="preserve" font-family="Baskerville-SemiBoldItalic" font-style="italic" font-weight="bold" font-size="48.0" fill="#6E695A" transform="matrix(1.00, 0.00, -0.00, -1.00, 530.0, 417.0)">t</text><text xml:space="preserve" font-family="Baskerville-SemiBoldItalic" font-style="italic" font-weight="bold" font-size="48.0" fill="#6E695A" transform="matrix(1.00, 0.00, -0.00, -1.00, 546.0, 417.0)">i</text><text xml:space="preserve" font-family="Baskerville-SemiBoldItalic" font-style="italic" font-weight="bold" font-size="48.0" fill="#6E695A" transform="matrix(1.00, 0.00, -0.00, -1.00, 561.0, 417.0)">o</text><text xml:space="preserve" font-family="Baskerville-SemiBoldItalic" font-style="italic" font-weight="bold" font-size="48.0" fill="#6E695A" transform="matrix(1.00, 0.00, -0.00, -1.00, 586.5, 417.0)">n</text><text xml:space="preserve" font-family="Baskerville-SemiBoldItalic" font-style="italic" font-weight="bold" font-size="48.0" fill="#6E695A" transform="matrix(1.00, 0.00, -0.00, -1.00, 614.5, 417.0)"> </text><text xml:space="preserve" font-family="Baskerville-SemiBoldItalic" font-style="italic" font-weight="bold" font-size="48.0" fill="#6E695A" transform="matrix(1.00, 0.00, -0.00, -1.00, 626.5, 417.0)">f</text><text xml:space="preserve" font-family="Baskerville-SemiBoldItalic" font-style="italic" font-weight="bold" font-size="48.0" fill="#6E695A" transform="matrix(1.00, 0.00, -0.00, -1.00, 641.0, 417.0)">r</text><text xml:space="preserve" font-family="Baskerville-SemiBoldItalic" font-style="italic" font-weight="bold" font-size="48.0" fill="#6E695A" transform="matrix(1.00, 0.00, -0.00, -1.00, 662.0, 417.0)">a</text><text xml:space="preserve" font-family="Baskerville-SemiBoldItalic" font-style="italic" font-weight="bold" font-size="48.0" fill="#6E695A" transform="matrix(1.00, 0.00, -0.00, -1.00, 687.5, 417.0)">m</text><text xml:space="preserve" font-family="Baskerville-SemiBoldItalic" font-style="italic" font-weight="bold" font-size="48.0" fill="#6E695A" transform="matrix(1.00, 0.00, -0.00, -1.00, 733.0, 417.0)">e</text><text xml:space="preserve" font-family="Baskerville-SemiBoldItalic" font-style="italic" font-weight="bold" font-size="48.0" fill="#6E695A" transform="matrix(1.00, 0.00, -0.00, -1.00, 755.5, 417.0)">w</text><text xml:space="preserve" font-family="Baskerville-SemiBoldItalic" font-style="italic" font-weight="bold" font-size="48.0" fill="#6E695A" transform="matrix(1.00, 0.00, -0.00, -1.00, 794.5, 417.0)">o</text><text xml:space="preserve" font-family="Baskerville-SemiBoldItalic" font-style="italic" font-weight="bold" font-size="48.0" fill="#6E695A" transform="matrix(1.00, 0.00, -0.00, -1.00, 820.0, 417.0)">r</text><text xml:space="preserve" font-family="Baskerville-SemiBoldItalic" font-style="italic" font-weight="bold" font-size="48.0" fill="#6E695A" transform="matrix(1.00, 0.00, -0.00, -1.00, 841.0, 417.0)">k</text><text xml:space="preserve" font-family="Baskerville-SemiBoldItalic" font-style="italic" font-weight="bold" font-size="48.0" fill="#6E695A" transform="matrix(1.00, 0.00, -0.00, -1.00, 868.0, 417.0)">,</text><text xml:space="preserve" font-family="Baskerville-SemiBoldItalic" font-style="italic" font-weight="bold" font-size="48.0" fill="#6E695A" transform="matrix(1.00, 0.00, -0.00, -1.00, 881.1, 417.0)"> </text><text xml:space="preserve" font-family="Baskerville-SemiBoldItalic" font-style="italic" font-weight="bold" font-size="48.0" fill="#6E695A" transform="matrix(1.00, 0.00, -0.00, -1.00, 122.0, 362.0)">w</text><text xml:space="preserve" font-family="Baskerville-SemiBoldItalic" font-style="italic" font-weight="bold" font-size="48.0" fill="#6E695A" transform="matrix(1.00, 0.00, -0.00, -1.00, 161.0, 362.0)">r</text><text xml:space="preserve" font-family="Baskerville-SemiBoldItalic" font-style="italic" font-weight="bold" font-size="48.0" fill="#6E695A" transform="matrix(1.00, 0.00, -0.00, -1.00, 182.0, 362.0)">i</text><text xml:space="preserve" font-family="Baskerville-SemiBoldItalic" font-style="italic" font-weight="bold" font-size="48.0" fill="#6E695A" transform="matrix(1.00, 0.00, -0.00, -1.00, 197.1, 362.0)">t</text><text xml:space="preserve" font-family="Baskerville-SemiBoldItalic" font-style="italic" font-weight="bold" font-size="48.0" fill="#6E695A" transform="matrix(1.00, 0.00, -0.00, -1.00, 213.1, 362.0)">t</text><text xml:space="preserve" font-family="Baskerville-SemiBoldItalic" font-style="italic" font-weight="bold" font-size="48.0" fill="#6E695A" transform="matrix(1.00, 0.00, -0.00, -1.00, 229.0, 362.0)">e</text><text xml:space="preserve" font-family="Baskerville-SemiBoldItalic" font-style="italic" font-weight="bold" font-size="48.0" fill="#6E695A" transform="matrix(1.00, 0.00, -0.00, -1.00, 251.6, 362.0)">n</text><text xml:space="preserve" font-family="Baskerville-SemiBoldItalic" font-style="italic" font-weight="bold" font-size="48.0" fill="#6E695A" transform="matrix(1.00, 0.00, -0.00, -1.00, 279.6, 362.0)"> </text><text xml:space="preserve" font-family="Baskerville-SemiBoldItalic" font-style="italic" font-weight="bold" font-size="48.0" fill="#6E695A" transform="matrix(1.00, 0.00, -0.00, -1.00, 291.6, 362.0)">i</text><text xml:space="preserve" font-family="Baskerville-SemiBoldItalic" font-style="italic" font-weight="bold" font-size="48.0" fill="#6E695A" transform="matrix(1.00, 0.00, -0.00, -1.00, 306.6, 362.0)">n</text><text xml:space="preserve" font-family="Baskerville-SemiBoldItalic" font-style="italic" font-weight="bold" font-size="48.0" fill="#6E695A" transform="matrix(1.00, 0.00, -0.00, -1.00, 334.6, 362.0)"> </text><text xml:space="preserve" font-family="Baskerville-SemiBoldItalic" font-style="italic" font-weight="bold" font-size="48.0" fill="#6E695A" transform="matrix(1.00, 0.00, -0.00, -1.00, 346.6, 362.0)">P</text><text xml:space="preserve" font-family="Baskerville-SemiBoldItalic" font-style="italic" font-weight="bold" font-size="48.0" fill="#6E695A" transform="matrix(1.00, 0.00, -0.00, -1.00, 377.6, 362.0)">y</text><text xml:space="preserve" font-family="Baskerville-SemiBoldItalic" font-style="italic" font-weight="bold" font-size="48.0" fill="#6E695A" transform="matrix(1.00, 0.00, -0.00, -1.00, 403.0, 362.0)">t</text><text xml:space="preserve" font-family="Baskerville-SemiBoldItalic" font-style="italic" font-weight="bold" font-size="48.0" fill="#6E695A" transform="matrix(1.00, 0.00, -0.00, -1.00, 419.0, 362.0)">h</text><text xml:space="preserve" font-family="Baskerville-SemiBoldItalic" font-style="italic" font-weight="bold" font-size="48.0" fill="#6E695A" transform="matrix(1.00, 0.00, -0.00, -1.00, 446.5, 362.0)">o</text><text xml:space="preserve" font-family="Baskerville-SemiBoldItalic" font-style="italic" font-weight="bold" font-size="48.0" fill="#6E695A" transform="matrix(1.00, 0.00, -0.00, -1.00, 472.0, 362.0)">n</text><text xml:space="preserve" font-family="Baskerville-SemiBoldItalic" font-style="italic" font-weight="bold" font-size="48.0" fill="#6E695A" transform="matrix(1.00, 0.00, -0.00, -1.00, 500.0, 362.0)">,</text><text xml:space="preserve" font-family="Baskerville-SemiBoldItalic" font-style="italic" font-weight="bold" font-size="48.0" fill="#6E695A" transform="matrix(1.00, 0.00, -0.00, -1.00, 513.0, 362.0)"> </text><text xml:space="preserve" font-family="Baskerville-SemiBoldItalic" font-style="italic" font-weight="bold" font-size="48.0" fill="#6E695A" transform="matrix(1.00, 0.00, -0.00, -1.00, 525.0, 362.0)">w</text><text xml:space="preserve" font-family="Baskerville-SemiBoldItalic" font-style="italic" font-weight="bold" font-size="48.0" fill="#6E695A" transform="matrix(1.00, 0.00, -0.00, -1.00, 564.0, 362.0)">h</text><text xml:space="preserve" font-family="Baskerville-SemiBoldItalic" font-style="italic" font-weight="bold" font-size="48.0" fill="#6E695A" transform="matrix(1.00, 0.00, -0.00, -1.00, 591.6, 362.0)">i</text><text xml:space="preserve" font-family="Baskerville-SemiBoldItalic" font-style="italic" font-weight="bold" font-size="48.0" fill="#6E695A" transform="matrix(1.00, 0.00, -0.00, -1.00, 606.6, 362.0)">c</text><text xml:space="preserve" font-family="Baskerville-SemiBoldItalic" font-style="italic" font-weight="bold" font-size="48.0" fill="#6E695A" transform="matrix(1.00, 0.00, -0.00, -1.00, 628.6, 362.0)">h</text><text xml:space="preserve" font-family="Baskerville-SemiBoldItalic" font-style="italic" font-weight="bold" font-size="48.0" fill="#6E695A" transform="matrix(1.00, 0.00, -0.00, -1.00, 656.1, 362.0)"> </text><text xml:space="preserve" font-family="Baskerville-SemiBoldItalic" font-style="italic" font-weight="bold" font-size="48.0" fill="#6E695A" transform="matrix(1.00, 0.00, -0.00, -1.00, 668.1, 362.0)">f</text><text xml:space="preserve" font-family="Baskerville-SemiBoldItalic" font-style="italic" font-weight="bold" font-size="48.0" fill="#6E695A" transform="matrix(1.00, 0.00, -0.00, -1.00, 682.6, 362.0)">o</text><text xml:space="preserve" font-family="Baskerville-SemiBoldItalic" font-style="italic" font-weight="bold" font-size="48.0" fill="#6E695A" transform="matrix(1.00, 0.00, -0.00, -1.00, 708.0, 362.0)">l</text><text xml:space="preserve" font-family="Baskerville-SemiBoldItalic" font-style="italic" font-weight="bold" font-size="48.0" fill="#6E695A" transform="matrix(1.00, 0.00, -0.00, -1.00, 723.1, 362.0)">l</text><text xml:space="preserve" font-family="Baskerville-SemiBoldItalic" font-style="italic" font-weight="bold" font-size="48.0" fill="#6E695A" transform="matrix(1.00, 0.00, -0.00, -1.00, 738.1, 362.0)">o</text><text xml:space="preserve" font-family="Baskerville-SemiBoldItalic" font-style="italic" font-weight="bold" font-size="48.0" fill="#6E695A" transform="matrix(1.00, 0.00, -0.00, -1.00, 763.5, 362.0)">w</text><text xml:space="preserve" font-family="Baskerville-SemiBoldItalic" font-style="italic" font-weight="bold" font-size="48.0" fill="#6E695A" transform="matrix(1.00, 0.00, -0.00, -1.00, 802.6, 362.0)">s</text><text xml:space="preserve" font-family="Baskerville-SemiBoldItalic" font-style="italic" font-weight="bold" font-size="48.0" fill="#6E695A" transform="matrix(1.00, 0.00, -0.00, -1.00, 824.6, 362.0)"> </text><text xml:space="preserve" font-family="Baskerville-SemiBoldItalic" font-style="italic" font-weight="bold" font-size="48.0" fill="#6E695A" transform="matrix(1.00, 0.00, -0.00, -1.00, 836.6, 362.0)">t</text><text xml:space="preserve" font-family="Baskerville-SemiBoldItalic" font-style="italic" font-weight="bold" font-size="48.0" fill="#6E695A" transform="matrix(1.00, 0.00, -0.00, -1.00, 852.5, 362.0)">h</text><text xml:space="preserve" font-family="Baskerville-SemiBoldItalic" font-style="italic" font-weight="bold" font-size="48.0" fill="#6E695A" transform="matrix(1.00, 0.00, -0.00, -1.00, 880.1, 362.0)">e</text><text xml:space="preserve" font-family="Baskerville-SemiBoldItalic" font-style="italic" font-weight="bold" font-size="48.0" fill="#6E695A" transform="matrix(1.00, 0.00, -0.00, -1.00, 902.6, 362.0)"> </text><text xml:space="preserve" font-family="Baskerville-SemiBoldItalic" font-style="italic" font-weight="bold" font-size="48.0" fill="#6E695A" transform="matrix(1.00, 0.00, -0.00, -1.00, 222.0, 307.0)">M</text><text xml:space="preserve" font-family="Baskerville-SemiBoldItalic" font-style="italic" font-weight="bold" font-size="48.0" fill="#6E695A" transform="matrix(1.00, 0.00, -0.00, -1.00, 267.5, 307.0)">V</text><text xml:space="preserve" font-family="Baskerville-SemiBoldItalic" font-style="italic" font-weight="bold" font-size="48.0" fill="#6E695A" transform="matrix(1.00, 0.00, -0.00, -1.00, 298.0, 307.0)">C</text><text xml:space="preserve" font-family="Baskerville-SemiBoldItalic" font-style="italic" font-weight="bold" font-size="48.0" fill="#6E695A" transform="matrix(1.00, 0.00, -0.00, -1.00, 331.0, 307.0)"> </text><text xml:space="preserve" font-family="Baskerville-SemiBoldItalic" font-style="italic" font-weight="bold" font-size="48.0" fill="#6E695A" transform="matrix(1.00, 0.00, -0.00, -1.00, 343.0, 307.0)">a</text><text xml:space="preserve" font-family="Baskerville-SemiBoldItalic" font-style="italic" font-weight="bold" font-size="48.0" fill="#6E695A" transform="matrix(1.00, 0.00, -0.00, -1.00, 368.5, 307.0)">r</text><text xml:space="preserve" font-family="Baskerville-SemiBoldItalic" font-style="italic" font-weight="bold" font-size="48.0" fill="#6E695A" transform="matrix(1.00, 0.00, -0.00, -1.00, 389.4, 307.0)">c</text><text xml:space="preserve" font-family="Baskerville-SemiBoldItalic" font-style="italic" font-weight="bold" font-size="48.0" fill="#6E695A" transform="matrix(1.00, 0.00, -0.00, -1.00, 411.3, 307.0)">h</text><text xml:space="preserve" font-family="Baskerville-SemiBoldItalic" font-style="italic" font-weight="bold" font-size="48.0" fill="#6E695A" transform="matrix(1.00, 0.00, -0.00, -1.00, 438.9, 307.0)">i</text><text xml:space="preserve" font-family="Baskerville-SemiBoldItalic" font-style="italic" font-weight="bold" font-size="48.0" fill="#6E695A" transform="matrix(1.00, 0.00, -0.00, -1.00, 453.9, 307.0)">t</text><text xml:space="preserve" font-family="Baskerville-SemiBoldItalic" font-style="italic" font-weight="bold" font-size="48.0" fill="#6E695A" transform="matrix(1.00, 0.00, -0.00, -1.00, 469.9, 307.0)">e</text><text xml:space="preserve" font-family="Baskerville-SemiBoldItalic" font-style="italic" font-weight="bold" font-size="48.0" fill="#6E695A" transform="matrix(1.00, 0.00, -0.00, -1.00, 492.4, 307.0)">c</text><text xml:space="preserve" font-family="Baskerville-SemiBoldItalic" font-style="italic" font-weight="bold" font-size="48.0" fill="#6E695A" transform="matrix(1.00, 0.00, -0.00, -1.00, 514.4, 307.0)">t</text><text xml:space="preserve" font-family="Baskerville-SemiBoldItalic" font-style="italic" font-weight="bold" font-size="48.0" fill="#6E695A" transform="matrix(1.00, 0.00, -0.00, -1.00, 530.4, 307.0)">u</text><text xml:space="preserve" font-family="Baskerville-SemiBoldItalic" font-style="italic" font-weight="bold" font-size="48.0" fill="#6E695A" transform="matrix(1.00, 0.00, -0.00, -1.00, 558.4, 307.0)">r</text><text xml:space="preserve" font-family="Baskerville-SemiBoldItalic" font-style="italic" font-weight="bold" font-size="48.0" fill="#6E695A" transform="matrix(1.00, 0.00, -0.00, -1.00, 579.4, 307.0)">a</text><text xml:space="preserve" font-family="Baskerville-SemiBoldItalic" font-style="italic" font-weight="bold" font-size="48.0" fill="#6E695A" transform="matrix(1.00, 0.00, -0.00, -1.00, 604.9, 307.0)">l</text><text xml:space="preserve" font-family="Baskerville-SemiBoldItalic" font-style="italic" font-weight="bold" font-size="48.0" fill="#6E695A" transform="matrix(1.00, 0.00, -0.00, -1.00, 619.9, 307.0)"> </text><text xml:space="preserve" font-family="Baskerville-SemiBoldItalic" font-style="italic" font-weight="bold" font-size="48.0" fill="#6E695A" transform="matrix(1.00, 0.00, -0.00, -1.00, 631.9, 307.0)">p</text><text xml:space="preserve" font-family="Baskerville-SemiBoldItalic" font-style="italic" font-weight="bold" font-size="48.0" fill="#6E695A" transform="matrix(1.00, 0.00, -0.00, -1.00, 659.4, 307.0)">a</text><text xml:space="preserve" font-family="Baskerville-SemiBoldItalic" font-style="italic" font-weight="bold" font-size="48.0" fill="#6E695A" transform="matrix(1.00, 0.00, -0.00, -1.00, 684.9, 307.0)">t</text><text xml:space="preserve" font-family="Baskerville-SemiBoldItalic" font-style="italic" font-weight="bold" font-size="48.0" fill="#6E695A" transform="matrix(1.00, 0.00, -0.00, -1.00, 700.9, 307.0)">t</text><text xml:space="preserve" font-family="Baskerville-SemiBoldItalic" font-style="italic" font-weight="bold" font-size="48.0" fill="#6E695A" transform="matrix(1.00, 0.00, -0.00, -1.00, 716.8, 307.0)">e</text><text xml:space="preserve" font-family="Baskerville-SemiBoldItalic" font-style="italic" font-weight="bold" font-size="48.0" fill="#6E695A" transform="matrix(1.00, 0.00, -0.00, -1.00, 739.4, 307.0)">r</text><text xml:space="preserve" font-family="Baskerville-SemiBoldItalic" font-style="italic" font-weight="bold" font-size="48.0" fill="#6E695A" transform="matrix(1.00, 0.00, -0.00, -1.00, 760.4, 307.0)">n</text><text xml:space="preserve" font-family="Baskerville-SemiBoldItalic" font-style="italic" font-weight="bold" font-size="48.0" fill="#6E695A" transform="matrix(1.00, 0.00, -0.00, -1.00, 788.4, 307.0)">.</text></g></svg>