<?xml version="1.0" encoding="UTF-8" standalone="no"?><svg xmlns="http://www.w3.org/2000/svg" xmlns:xlink="http://www.w3.org/1999/xlink" clip-rule="evenodd" stroke-miterlimit="4.00" viewBox="0 0 233 31"><desc>SVG generated by Keynote</desc><defs></defs><g transform="matrix(1.00, 0.00, -0.00, -1.00, 0.0, 31.0)"><image xlink:href="0105023762A435801D35DE5CB8E1BD88.png" width="230.00" height="28.00" transform="matrix(1.00, 0.00, -0.00, -1.00, 3.0, 28.0)"></image><text xml:space="preserve" font-family="Copperplate" font-size="42.0" fill="#FFFBF2" transform="matrix(1.00, 0.00, -0.00, -1.00, 5.0, 2.0)">W</text><text xml:space="preserve" font-family="Copperplate" font-size="42.0" fill="#FFFBF2" transform="matrix(1.00, 0.00, -0.00, -1.00, 44.6, 2.0)">h</text><text xml:space="preserve" font-family="Copperplate" font-size="42.0" fill="#FFFBF2" transform="matrix(1.00, 0.00, -0.00, -1.00, 72.7, 2.0)">a</text><text xml:space="preserve" font-family="Copperplate" font-size="42.0" fill="#FFFBF2" transform="matrix(1.00, 0.00, -0.00, -1.00, 96.0, 2.0)">t</text><text xml:space="preserve" font-family="Copperplate" font-size="42.0" fill="#FFFBF2" transform="matrix(1.00, 0.00, -0.00, -1.00, 117.0, 2.0)"> </text><text xml:space="preserve" font-family="Copperplate" font-size="42.0" fill="#FFFBF2" transform="matrix(1.00, 0.00, -0.00, -1.00, 129.8, 2.0)">i</text><text xml:space="preserve" font-family="Copperplate" font-size="42.0" fill="#FFFBF2" transform="matrix(1.00, 0.00, -0.00, -1.00, 143.8, 2.0)">t</text><text xml:space="preserve" font-family="Copperplate" font-size="42.0" fill="#FFFBF2" transform="matrix(1.00, 0.00, -0.00, -1.00, 164.8, 2.0)"> </text><text xml:space="preserve" font-family="Copperplate" font-size="42.0" fill="#FFFBF2" transform="matrix(1.00, 0.00, -0.00, -1.00, 177.6, 2.0)">i</text><text xml:space="preserve" font-family="Copperplate" font-size="42.0" fill="#FFFBF2" transform="matrix(1.00, 0.00, -0.00, -1.00, 191.6, 2.0)">s</text><text xml:space="preserve" font-family="Copperplate" font-size="42.0" fill="#FFFBF2" transform="matrix(1.00, 0.00, -0.00, -1.00, 215.0, 2.0)">?</text></g></svg>