<?xml version="1.0" encoding="UTF-8" standalone="no"?><svg xmlns="http://www.w3.org/2000/svg" xmlns:xlink="http://www.w3.org/1999/xlink" clip-rule="evenodd" stroke-miterlimit="4.00" viewBox="0 0 870 73"><desc>SVG generated by Keynote</desc><defs></defs><g transform="matrix(1.00, 0.00, -0.00, -1.00, 0.0, 73.0)"><image xlink:href="AA2458FC0290748DDC5A47E3741B62C2.png" width="867.00" height="70.00" transform="matrix(1.00, 0.00, -0.00, -1.00, 2.0, 72.0)"></image><text xml:space="preserve" font-family="Baskerville-SemiBold" font-weight="bold" font-size="69.0" fill="#3D3F28" transform="matrix(1.00, 0.00, -0.00, -1.00, 6.0, 22.0)">N</text><text xml:space="preserve" font-family="Baskerville-SemiBold" font-weight="bold" font-size="69.0" fill="#3D3F28" transform="matrix(1.00, 0.00, -0.00, -1.00, 58.4, 22.0)">o</text><text xml:space="preserve" font-family="Baskerville-SemiBold" font-weight="bold" font-size="69.0" fill="#3D3F28" transform="matrix(1.00, 0.00, -0.00, -1.00, 92.8, 22.0)">,</text><text xml:space="preserve" font-family="Baskerville-SemiBold" font-weight="bold" font-size="69.0" fill="#3D3F28" transform="matrix(1.00, 0.00, -0.00, -1.00, 112.2, 22.0)"> </text><text xml:space="preserve" font-family="Baskerville-SemiBold" font-weight="bold" font-size="69.0" fill="#3D3F28" transform="matrix(1.00, 0.00, -0.00, -1.00, 129.4, 22.0)">n</text><text xml:space="preserve" font-family="Baskerville-SemiBold" font-weight="bold" font-size="69.0" fill="#3D3F28" transform="matrix(1.00, 0.00, -0.00, -1.00, 170.5, 22.0)">o</text><text xml:space="preserve" font-family="Baskerville-SemiBold" font-weight="bold" font-size="69.0" fill="#3D3F28" transform="matrix(1.00, 0.00, -0.00, -1.00, 209.3, 22.0)">t</text><text xml:space="preserve" font-family="Baskerville-SemiBold" font-weight="bold" font-size="69.0" fill="#3D3F28" transform="matrix(1.00, 0.00, -0.00, -1.00, 234.5, 22.0)"> </text><text xml:space="preserve" font-family="Baskerville-SemiBold" font-weight="bold" font-size="69.0" fill="#3D3F28" transform="matrix(1.00, 0.00, -0.00, -1.00, 251.8, 22.0)">t</text><text xml:space="preserve" font-family="Baskerville-SemiBold" font-weight="bold" font-size="69.0" fill="#3D3F28" transform="matrix(1.00, 0.00, -0.00, -1.00, 277.0, 22.0)">h</text><text xml:space="preserve" font-family="Baskerville-SemiBold" font-weight="bold" font-size="69.0" fill="#3D3F28" transform="matrix(1.00, 0.00, -0.00, -1.00, 317.2, 22.0)">e</text><text xml:space="preserve" font-family="Baskerville-SemiBold" font-weight="bold" font-size="69.0" fill="#3D3F28" transform="matrix(1.00, 0.00, -0.00, -1.00, 352.4, 22.0)"> </text><text xml:space="preserve" font-family="Baskerville-SemiBold" font-weight="bold" font-size="69.0" fill="#3D3F28" transform="matrix(1.00, 0.00, -0.00, -1.00, 369.6, 22.0)">u</text><text xml:space="preserve" font-family="Baskerville-SemiBold" font-weight="bold" font-size="69.0" fill="#3D3F28" transform="matrix(1.00, 0.00, -0.00, -1.00, 410.6, 22.0)">n</text><text xml:space="preserve" font-family="Baskerville-SemiBold" font-weight="bold" font-size="69.0" fill="#3D3F28" transform="matrix(1.00, 0.00, -0.00, -1.00, 451.7, 22.0)">c</text><text xml:space="preserve" font-family="Baskerville-SemiBold" font-weight="bold" font-size="69.0" fill="#3D3F28" transform="matrix(1.00, 0.00, -0.00, -1.00, 485.5, 22.0)">h</text><text xml:space="preserve" font-family="Baskerville-SemiBold" font-weight="bold" font-size="69.0" fill="#3D3F28" transform="matrix(1.00, 0.00, -0.00, -1.00, 525.7, 22.0)">a</text><text xml:space="preserve" font-family="Baskerville-SemiBold" font-weight="bold" font-size="69.0" fill="#3D3F28" transform="matrix(1.00, 0.00, -0.00, -1.00, 563.1, 22.0)">i</text><text xml:space="preserve" font-family="Baskerville-SemiBold" font-weight="bold" font-size="69.0" fill="#3D3F28" transform="matrix(1.00, 0.00, -0.00, -1.00, 584.7, 22.0)">n</text><text xml:space="preserve" font-family="Baskerville-SemiBold" font-weight="bold" font-size="69.0" fill="#3D3F28" transform="matrix(1.00, 0.00, -0.00, -1.00, 625.7, 22.0)">e</text><text xml:space="preserve" font-family="Baskerville-SemiBold" font-weight="bold" font-size="69.0" fill="#3D3F28" transform="matrix(1.00, 0.00, -0.00, -1.00, 660.9, 22.0)">d</text><text xml:space="preserve" font-family="Baskerville-SemiBold" font-weight="bold" font-size="69.0" fill="#3D3F28" transform="matrix(1.00, 0.00, -0.00, -1.00, 702.6, 22.0)"> </text><text xml:space="preserve" font-family="Baskerville-SemiBold" font-weight="bold" font-size="69.0" fill="#3D3F28" transform="matrix(1.00, 0.00, -0.00, -1.00, 719.8, 22.0)">k</text><text xml:space="preserve" font-family="Baskerville-SemiBold" font-weight="bold" font-size="69.0" fill="#3D3F28" transform="matrix(1.00, 0.00, -0.00, -1.00, 760.1, 22.0)">i</text><text xml:space="preserve" font-family="Baskerville-SemiBold" font-weight="bold" font-size="69.0" fill="#3D3F28" transform="matrix(1.00, 0.00, -0.00, -1.00, 781.6, 22.0)">n</text><text xml:space="preserve" font-family="Baskerville-SemiBold" font-weight="bold" font-size="69.0" fill="#3D3F28" transform="matrix(1.00, 0.00, -0.00, -1.00, 822.7, 22.0)">d</text></g></svg>