<?xml version="1.0" encoding="UTF-8" standalone="no"?><svg xmlns="http://www.w3.org/2000/svg" xmlns:xlink="http://www.w3.org/1999/xlink" clip-rule="evenodd" stroke-miterlimit="4.00" viewBox="0 0 1024 768"><desc>SVG generated by Keynote</desc><defs></defs><g transform="matrix(1.00, 0.00, -0.00, -1.00, 0.0, 768.0)"><g><clipPath id="clip-3"><path d="M 0.0 768.0 L 1024.0 768.0 L 1024.0 0.0 L 0.0 0.0 Z M 0.0 768.0 "></path></clipPath><g clip-path="url(#clip-3)"><image xlink:href="../../A8ABAAB2-9805-4355-86DC-AB1D37E6CD16/assets/CADFDCF2F166FEDCE00D883A7C86E72A.jpeg" width="1024.00" height="768.00" transform="matrix(1.00, 0.00, -0.00, -1.00, 0.0, 768.0)"></image></g></g><g><clipPath id="clip-4"><path d="M 144.0 702.0 L 880.0 702.0 L 880.0 150.0 L 144.0 150.0 Z M 144.3 702.0 "></path></clipPath><g clip-path="url(#clip-4)"><image xlink:href="../../A8ABAAB2-9805-4355-86DC-AB1D37E6CD16/assets/7DDA3EF32C1BB8243BB5F721B6912726.png" width="961.00" height="404.00" transform="matrix(1.36, 0.00, -0.00, -1.37, -143.0, 702.0)"></image></g></g><image xlink:href="../../A8ABAAB2-9805-4355-86DC-AB1D37E6CD16/assets/7C4A16EE44DAB28748245966D2698169.png" width="789.00" height="607.00" transform="matrix(1.00, 0.00, -0.00, 1.00, 117.3, 122.4)"></image><image xlink:href="../../A8ABAAB2-9805-4355-86DC-AB1D37E6CD16/assets/AA2458FC0290748DDC5A47E3741B62C2.png" width="867.00" height="70.00" transform="matrix(1.00, 0.00, -0.00, -1.00, 79.0, 102.0)"></image><text xml:space="preserve" font-family="Baskerville-SemiBold" font-weight="bold" font-size="69.0" fill="#3D3F28" transform="matrix(1.00, 0.00, -0.00, -1.00, 83.0, 52.0)">N</text><text xml:space="preserve" font-family="Baskerville-SemiBold" font-weight="bold" font-size="69.0" fill="#3D3F28" transform="matrix(1.00, 0.00, -0.00, -1.00, 135.4, 52.0)">o</text><text xml:space="preserve" font-family="Baskerville-SemiBold" font-weight="bold" font-size="69.0" fill="#3D3F28" transform="matrix(1.00, 0.00, -0.00, -1.00, 169.8, 52.0)">,</text><text xml:space="preserve" font-family="Baskerville-SemiBold" font-weight="bold" font-size="69.0" fill="#3D3F28" transform="matrix(1.00, 0.00, -0.00, -1.00, 189.2, 52.0)"> </text><text xml:space="preserve" font-family="Baskerville-SemiBold" font-weight="bold" font-size="69.0" fill="#3D3F28" transform="matrix(1.00, 0.00, -0.00, -1.00, 206.4, 52.0)">n</text><text xml:space="preserve" font-family="Baskerville-SemiBold" font-weight="bold" font-size="69.0" fill="#3D3F28" transform="matrix(1.00, 0.00, -0.00, -1.00, 247.5, 52.0)">o</text><text xml:space="preserve" font-family="Baskerville-SemiBold" font-weight="bold" font-size="69.0" fill="#3D3F28" transform="matrix(1.00, 0.00, -0.00, -1.00, 286.3, 52.0)">t</text><text xml:space="preserve" font-family="Baskerville-SemiBold" font-weight="bold" font-size="69.0" fill="#3D3F28" transform="matrix(1.00, 0.00, -0.00, -1.00, 311.5, 52.0)"> </text><text xml:space="preserve" font-family="Baskerville-SemiBold" font-weight="bold" font-size="69.0" fill="#3D3F28" transform="matrix(1.00, 0.00, -0.00, -1.00, 328.8, 52.0)">t</text><text xml:space="preserve" font-family="Baskerville-SemiBold" font-weight="bold" font-size="69.0" fill="#3D3F28" transform="matrix(1.00, 0.00, -0.00, -1.00, 354.0, 52.0)">h</text><text xml:space="preserve" font-family="Baskerville-SemiBold" font-weight="bold" font-size="69.0" fill="#3D3F28" transform="matrix(1.00, 0.00, -0.00, -1.00, 394.2, 52.0)">e</text><text xml:space="preserve" font-family="Baskerville-SemiBold" font-weight="bold" font-size="69.0" fill="#3D3F28" transform="matrix(1.00, 0.00, -0.00, -1.00, 429.4, 52.0)"> </text><text xml:space="preserve" font-family="Baskerville-SemiBold" font-weight="bold" font-size="69.0" fill="#3D3F28" transform="matrix(1.00, 0.00, -0.00, -1.00, 446.6, 52.0)">u</text><text xml:space="preserve" font-family="Baskerville-SemiBold" font-weight="bold" font-size="69.0" fill="#3D3F28" transform="matrix(1.00, 0.00, -0.00, -1.00, 487.6, 52.0)">n</text><text xml:space="preserve" font-family="Baskerville-SemiBold" font-weight="bold" font-size="69.0" fill="#3D3F28" transform="matrix(1.00, 0.00, -0.00, -1.00, 528.7, 52.0)">c</text><text xml:space="preserve" font-family="Baskerville-SemiBold" font-weight="bold" font-size="69.0" fill="#3D3F28" transform="matrix(1.00, 0.00, -0.00, -1.00, 562.5, 52.0)">h</text><text xml:space="preserve" font-family="Baskerville-SemiBold" font-weight="bold" font-size="69.0" fill="#3D3F28" transform="matrix(1.00, 0.00, -0.00, -1.00, 602.7, 52.0)">a</text><text xml:space="preserve" font-family="Baskerville-SemiBold" font-weight="bold" font-size="69.0" fill="#3D3F28" transform="matrix(1.00, 0.00, -0.00, -1.00, 640.1, 52.0)">i</text><text xml:space="preserve" font-family="Baskerville-SemiBold" font-weight="bold" font-size="69.0" fill="#3D3F28" transform="matrix(1.00, 0.00, -0.00, -1.00, 661.7, 52.0)">n</text><text xml:space="preserve" font-family="Baskerville-SemiBold" font-weight="bold" font-size="69.0" fill="#3D3F28" transform="matrix(1.00, 0.00, -0.00, -1.00, 702.7, 52.0)">e</text><text xml:space="preserve" font-family="Baskerville-SemiBold" font-weight="bold" font-size="69.0" fill="#3D3F28" transform="matrix(1.00, 0.00, -0.00, -1.00, 737.9, 52.0)">d</text><text xml:space="preserve" font-family="Baskerville-SemiBold" font-weight="bold" font-size="69.0" fill="#3D3F28" transform="matrix(1.00, 0.00, -0.00, -1.00, 779.6, 52.0)"> </text><text xml:space="preserve" font-family="Baskerville-SemiBold" font-weight="bold" font-size="69.0" fill="#3D3F28" transform="matrix(1.00, 0.00, -0.00, -1.00, 796.8, 52.0)">k</text><text xml:space="preserve" font-family="Baskerville-SemiBold" font-weight="bold" font-size="69.0" fill="#3D3F28" transform="matrix(1.00, 0.00, -0.00, -1.00, 837.1, 52.0)">i</text><text xml:space="preserve" font-family="Baskerville-SemiBold" font-weight="bold" font-size="69.0" fill="#3D3F28" transform="matrix(1.00, 0.00, -0.00, -1.00, 858.6, 52.0)">n</text><text xml:space="preserve" font-family="Baskerville-SemiBold" font-weight="bold" font-size="69.0" fill="#3D3F28" transform="matrix(1.00, 0.00, -0.00, -1.00, 899.7, 52.0)">d</text></g></svg>